<?xml version="1.0" encoding="UTF-8"?>
<svg id="Layer_2" data-name="Layer 2" xmlns="http://www.w3.org/2000/svg" viewBox="0 0 594.11 173.33">
  <defs>
    <style>
      .cls-1 {
        letter-spacing: -.01em;
      }

      .cls-2 {
        font-family: NHaasGroteskTXPro-55Rg, 'Neue Haas Grotesk Text Pro';
        font-size: 75.07px;
      }

      .cls-2, .cls-3 {
        fill: #044e81;
      }

      .cls-4 {
        letter-spacing: 0em;
      }

      .cls-5 {
        letter-spacing: .01em;
      }

      .cls-6 {
        letter-spacing: 0em;
      }

      .cls-7 {
        letter-spacing: 0em;
      }

      .cls-8 {
        fill: #ff6700;
        stroke: #ff6700;
        stroke-miterlimit: 10;
        stroke-width: 2px;
      }

      .cls-9 {
        letter-spacing: 0em;
      }

      .cls-10 {
        letter-spacing: 0em;
      }

      .cls-11 {
        letter-spacing: 0em;
      }

      .cls-12 {
        letter-spacing: -.01em;
      }
    </style>
  </defs>
  <g id="Layer_5" data-name="Layer 5">
    <text class="cls-2" transform="translate(199 115.57)"><tspan class="cls-12" x="0" y="0">E</tspan><tspan class="cls-11" x="48.87" y="0">n</tspan><tspan class="cls-1" x="91.36" y="0">g</tspan><tspan class="cls-10" x="135.27" y="0">i</tspan><tspan class="cls-6" x="151.93" y="0">n</tspan><tspan class="cls-9" x="194.95" y="0">e</tspan><tspan class="cls-7" x="238.49" y="0">e</tspan><tspan class="cls-4" x="281.8" y="0">r</tspan><tspan class="cls-5" x="309.8" y="0">s</tspan></text>
    <polygon class="cls-8" points="580.9 77.56 576.17 77.56 576.17 90.21 563.96 90.21 563.96 94.69 576.17 94.69 576.17 107.39 580.9 107.39 580.9 94.69 593.11 94.69 593.11 90.21 580.9 90.21 580.9 77.56"/>
    <path class="cls-3" d="M0,0v173.33h173.33V0H0ZM31.85,140.83h-15.69l21.16-108.08,32.19,72.88-7.9,17.3-18.95-42.85-10.81,60.74ZM92.76,140.83v-12.57h16.25l-7.69-48.11-27.66,60.68h-26.15v-12.57h16.39s43.67-95.51,43.67-95.51l19.01,108.08h-33.82ZM156.82,80.4c-4.12,5.87-10.15,10.23-17.05,12.3-3.97,1.19-16.8,3.33-16.8,3.33l-2.5-14.12c3.87-.68,7.78-1.27,11.62-2.08,3.65-.77,7.33-1.96,10.17-4.49,2.91-2.59,4.95-6.1,5.75-9.92.47-2.24.5-4.57.11-6.82-.41-2.25-1.24-4.43-2.44-6.37-2.06-3.31-5.18-5.91-8.8-7.34-3.53-1.4-7.39-1.26-11.09-.73-3.89.55-7.76,1.34-11.63,2.03,0,0-2.5-14.11-2.5-14.11,0,0,4.38-.79,4.66-.84,4.07-.73,8.13-1.56,12.26-1.81,7.19-.43,14.35,1.6,20.23,5.7,7.13,4.97,11.9,12.42,13.43,20.97,0,0,0,0,0,0h0s0,0,0,0c1.5,8.56-.42,17.19-5.41,24.31Z"/>
  </g>
</svg>