<?xml version="1.0" encoding="UTF-8"?><svg xmlns="http://www.w3.org/2000/svg" viewBox="0 0 421 207"><defs><style>.f{letter-spacing:.001em;}.g{letter-spacing:.01em;}.h{letter-spacing:-.015em;}.i{letter-spacing:-.005em;}.j{letter-spacing:-.006em;}.k{letter-spacing:-.0004em;}.l{fill:#ff6700;stroke:#ff6700;stroke-miterlimit:10;stroke-width:2px;}.m{letter-spacing:.002em;}.n{letter-spacing:.003em;}.o,.p{fill:#1c1c1a;}.p{font-family:NHaasGroteskTXStd-55Rg, Neue Haas Grotesk Text Std;font-size:37.2077px;}</style></defs><g id="a"><path class="o" d="M55.5804,54.5612v97h97V54.5612H55.5804Zm17.8222,78.8097h-8.7806l11.8411-60.4809,18.0129,40.7838-4.4212,9.6825-10.6041-23.9786-6.0481,33.9932Zm34.0877,.0001v-7.0346h9.0919l-4.3042-26.9223-15.4802,33.9592h-14.6358v-7.0335h9.1736l24.4401-53.4498,10.6389,60.4809h-18.9243Zm35.8493-33.8166c-2.3062,3.2875-5.6777,5.7267-9.5405,6.8807-2.2205,.6634-9.4006,1.8643-9.4006,1.8643l-1.3969-7.9034c2.1674-.3802,4.3518-.7103,6.5047-1.1664,2.0435-.433,4.1014-1.0993,5.6892-2.5132,1.6276-1.4493,2.7698-3.4152,3.2155-5.5491,.2621-1.2549,.2811-2.556,.0615-3.8187-.227-1.2616-.6913-2.4773-1.3682-3.5661-1.1509-1.8513-2.8983-3.3059-4.9244-4.1087-1.9766-.7832-4.1382-.7029-6.2062-.4084-2.1787,.3103-4.3437,.7498-6.51,1.1365l-1.3988-7.896c-.0004-.0025,2.4524-.4399,2.608-.4678,2.2758-.4078,4.5471-.8749,6.8604-1.0138,4.0242-.2415,8.028,.8926,11.3223,3.1891,3.99,2.7815,6.6581,6.95,7.5133,11.7379l-.0004-.0023,.0008,.0044-.0004-.0021c.8397,4.7905-.236,9.6214-3.0292,13.6031Z"/><text class="p" transform="translate(180.2849 121.6656)"><tspan class="h" x="0" y="0">E</tspan><tspan class="i" x="24.2219" y="0">n</tspan><tspan class="k" x="45.2807" y="0">g</tspan><tspan class="f" x="67.404" y="0">i</tspan><tspan class="m" x="75.6638" y="0">n</tspan><tspan class="n" x="96.9844" y="0">e</tspan><tspan x="118.5647" y="0">e</tspan><tspan class="j" x="140.0336" y="0">r</tspan><tspan class="g" x="153.9117" y="0">s</tspan></text><polygon class="l" points="371.018 104.4571 368.6757 104.4571 368.6757 110.7233 362.6221 110.7233 362.6221 112.9443 368.6757 112.9443 368.6757 119.241 371.018 119.241 371.018 112.9443 377.0716 112.9443 377.0716 110.7233 371.018 110.7233 371.018 104.4571"/></g><g id="b"/><g id="c"/><g id="d"/><g id="e"/></svg>