<?xml version="1.0" encoding="UTF-8"?><svg xmlns="http://www.w3.org/2000/svg" viewBox="0 0 615.75 207"><defs><style>.f{letter-spacing:.01em;}.g{letter-spacing:-.005em;}.h{letter-spacing:-.006em;}.i{font-family:NHaasGroteskTXStd-55Rg, Neue Haas Grotesk Text Std;font-size:57.4016px;}.i,.j{fill:#054d81;}.k{letter-spacing:.002em;}.l{letter-spacing:.016em;}.m{letter-spacing:.001em;}.n{letter-spacing:.012em;}.o{letter-spacing:.003em;}.p{letter-spacing:-.015em;}.q{letter-spacing:-.07em;}</style></defs><g id="a"><text class="i" transform="translate(238.4635 127)"><tspan class="l" x="0" y="0">M</tspan><tspan class="n" x="51.4888" y="0">P</tspan><tspan class="q" x="89.3163" y="0"> </tspan><tspan class="p" x="100.5664" y="0">E</tspan><tspan class="g" x="137.934" y="0">n</tspan><tspan class="h" x="170.4226" y="0">g</tspan><tspan class="m" x="204.2315" y="0">i</tspan><tspan class="k" x="216.9748" y="0">n</tspan><tspan class="o" x="249.8658" y="0">e</tspan><tspan x="283.1581" y="0">e</tspan><tspan class="h" x="316.2786" y="0">r</tspan><tspan class="f" x="337.6899" y="0">s</tspan></text><path class="j" d="M8.3042,8.7811V198.8439H198.3672V8.7811H8.3042ZM43.2252,163.2016H26.0203L49.2219,44.6946l35.2948,79.9121-8.6629,18.9721-20.7778-46.9839-11.8507,66.6066Zm66.7919,.0002v-13.7836h17.8149l-8.4337-52.7518-30.3321,66.54h-28.6776v-13.7816l17.9748,.0002L126.2517,44.6946l20.846,118.507-37.0806,.0002Zm70.2435-66.2608c-4.5189,6.4416-11.125,11.2209-18.6937,13.4822-4.3508,1.2999-18.4197,3.6529-18.4197,3.6529l-2.7371-15.4859c4.2469-.7449,8.527-1.3917,12.7454-2.2855,4.0041-.8484,8.0363-2.154,11.1475-4.9244,3.1892-2.8398,5.4272-6.6919,6.3005-10.8729,.5136-2.4588,.5508-5.0082,.1205-7.4825-.4448-2.472-1.3546-4.8541-2.6809-6.9875-2.255-3.6275-5.6789-6.4777-9.649-8.0507-3.8731-1.5346-8.1084-1.3772-12.1605-.8002-4.2689,.608-8.5112,1.4692-12.7557,2.2269l-2.7408-15.4715c-.0009-.005,4.8052-.862,5.1101-.9166,4.4591-.799,8.9097-1.7143,13.4423-1.9864,7.8851-.4732,15.7301,1.749,22.185,6.2487,7.8181,5.4501,13.0461,13.6179,14.7216,22.9993l-.0007-.0046,.0015,.0087-.0008-.0041c1.6454,9.3865-.4624,18.8524-5.9355,26.6541Z"/></g><g id="b"/><g id="c"/><g id="d"/><g id="e"/></svg>