<?xml version="1.0" encoding="utf-8"?>
<!-- Generator: Adobe Illustrator 25.2.3, SVG Export Plug-In . SVG Version: 6.00 Build 0)  -->
<svg version="1.1" xmlns="http://www.w3.org/2000/svg" xmlns:xlink="http://www.w3.org/1999/xlink" x="0px" y="0px"
	 viewBox="0 0 792 612" style="enable-background:new 0 0 792 612;" xml:space="preserve">
<style type="text/css">
	.st0{fill:#044D81;}
	.st1{fill:#4FAB38;}
	.st2{fill:#5E5E5F;}
	.st3{fill-rule:evenodd;clip-rule:evenodd;fill:#006286;}
</style>
<g id="Layer_1">
	<g>
		<g>
			<path class="st0" d="M366.07,224.27h7.58l8.9,23.21c1.72,4.65,4.31,13.38,4.31,13.38h0.12c0,0,2.64-8.67,4.37-13.38l8.73-23.21
				h7.81v42.74h-5.63v-25.85c0-3.79,0.35-10.97,0.35-10.97h-0.12c0,0-1.72,6.43-2.99,9.77l-10.4,27.06h-4.6l-10.4-27.06
				c-1.21-3.33-2.99-9.77-2.99-9.77h-0.12c0,0,0.35,7.18,0.35,10.97v25.85h-5.29V224.27z"/>
			<path class="st0" d="M417.6,224.27h17.98c4.54,0,8.04,1.49,10.23,4.14c1.9,2.24,3.04,5,3.04,8.39c0,7.87-4.6,12.64-13.84,12.64
				h-11.49v17.58h-5.92V224.27z M423.52,244.66h10.91c5.8,0,8.56-2.93,8.56-7.7c0-5-3.04-7.58-8.33-7.58h-11.14V244.66z"/>
			<path class="st0" d="M466.72,224.27h30.39v5.17h-24.53v12.92h22.17v4.88h-22.17v14.42h25.16v5.34h-31.02V224.27z"/>
			<path class="st0" d="M508.66,240.53h0.17c2.24-3.1,5.28-5.11,9.77-5.11c6.43,0,10.4,3.62,10.4,10.05v21.54h-5.28V246.1
				c0-3.96-2.58-6.2-6.78-6.2c-4.77,0-8.21,3.39-8.21,8.33v18.78h-5.34v-30.85h5.28V240.53z"/>
			<path class="st0" d="M535.67,269.13h5c0.46,3.22,3.56,4.54,8.16,4.54c5.51,0,8.56-2.47,8.56-7.7v-0.86
				c0-1.78,0.06-3.45,0.12-4.42h-0.12c-2.13,3.04-4.83,4.94-9.19,4.94c-7.87,0-13.5-6.15-13.5-15.11c0-9.48,5.97-15.11,13.21-15.11
				c4.42,0,7.41,1.72,9.36,4.83h0.11v-4.08h5.29v29.59c0,4.08-1.38,7.12-3.73,9.13c-2.41,2.01-5.86,2.93-9.99,2.93
				C540.84,277.81,536.24,274.59,535.67,269.13z M557.73,250.29c0-6.49-2.93-10.46-9.08-10.46c-5.63,0-8.5,4.25-8.5,10.74
				c0,6.55,2.99,10.69,8.56,10.69C555.43,261.26,557.73,256.55,557.73,250.29z"/>
			<path class="st0" d="M569.9,224.27h5.57v6.2h-5.57V224.27z M570.01,236.16h5.34v30.85h-5.34V236.16z"/>
			<path class="st0" d="M588.05,240.53h0.17c2.24-3.1,5.28-5.11,9.76-5.11c6.43,0,10.4,3.62,10.4,10.05v21.54h-5.29V246.1
				c0-3.96-2.59-6.2-6.78-6.2c-4.77,0-8.22,3.39-8.22,8.33v18.78h-5.34v-30.85h5.29V240.53z"/>
			<path class="st0" d="M614.02,251.61c0-8.96,5.92-16.2,14.76-16.2c4.6,0,8.16,1.78,10.57,4.77c2.53,3.04,3.79,7.47,3.79,12.69
				h-23.67c0.4,6.03,3.68,10.63,9.65,10.63c4.25,0,7.18-2.01,8.16-5.29h5.23c-1.38,5.75-6.32,9.65-13.44,9.65
				C619.59,267.87,614.02,260.63,614.02,251.61z M619.59,249.03h17.86c-0.29-5.92-3.33-9.48-8.67-9.48
				C623.21,239.55,620.28,243.57,619.59,249.03z"/>
			<path class="st0" d="M647.35,251.61c0-8.96,5.92-16.2,14.76-16.2c4.6,0,8.16,1.78,10.57,4.77c2.53,3.04,3.79,7.47,3.79,12.69
				H652.8c0.4,6.03,3.68,10.63,9.65,10.63c4.25,0,7.18-2.01,8.16-5.29h5.23c-1.38,5.75-6.32,9.65-13.44,9.65
				C652.92,267.87,647.35,260.63,647.35,251.61z M652.92,249.03h17.86c-0.29-5.92-3.33-9.48-8.67-9.48
				C656.54,239.55,653.61,243.57,652.92,249.03z"/>
			<path class="st0" d="M687.45,241.73h0.17c1.9-3.56,5.06-5.97,9.13-5.97c0.86,0,1.38,0.11,1.95,0.34v5.06h-0.17
				c-0.75-0.23-1.26-0.29-2.18-0.29c-4.77,0-8.85,3.56-8.85,9.36v16.77h-5.34v-30.85h5.29V241.73z"/>
			<path class="st0" d="M701.64,257.64h5.4c0.63,4.48,4.08,5.98,8.5,5.98c4.88,0,6.95-2.13,6.95-4.88c0-3.39-2.58-4.25-8.04-5.34
				c-6.03-1.26-11.49-2.53-11.49-9.31c0-5.28,4.14-8.62,11.32-8.62c7.76,0,11.6,3.62,12.29,8.96h-5.34
				c-0.46-3.16-2.64-4.94-7.07-4.94c-4.19,0-5.97,1.95-5.97,4.31c0,3.22,2.99,3.85,8.22,4.88c6.15,1.21,11.43,2.58,11.43,9.76
				c0,6.26-5.17,9.48-12.41,9.48C706.92,267.93,702.1,263.91,701.64,257.64z"/>
			<path class="st0" d="M417.37,289.35h6.55l15.74,42.74h-6.43l-4.25-12.47h-16.83l-4.37,12.47h-6.03L417.37,289.35z M413.75,315.02
				h13.67l-4.08-11.95c-1.44-4.14-2.58-9.08-2.58-9.08h-0.17c0,0-1.26,5.11-2.64,9.08L413.75,315.02z"/>
			<path class="st0" d="M449.55,306.81h0.17c1.9-3.56,5.05-5.97,9.13-5.97c0.86,0,1.38,0.11,1.95,0.34v5.06h-0.17
				c-0.75-0.23-1.26-0.29-2.18-0.29c-4.77,0-8.85,3.56-8.85,9.36v16.77h-5.34v-30.85h5.28V306.81z"/>
			<path class="st0" d="M462.47,316.69c0-8.96,5.8-16.2,15.05-16.2c7.41,0,12.24,4.19,13.33,10.8h-5.34
				c-0.75-4.02-3.5-6.49-7.98-6.49c-6.32,0-9.59,5.23-9.59,11.89c0,6.66,3.27,11.89,9.59,11.89c4.83,0,7.7-2.81,8.1-7.41h5.28
				c-0.69,7.35-5.57,11.78-13.38,11.78C468.28,332.95,462.47,325.71,462.47,316.69z"/>
			<path class="st0" d="M501.59,305.72h0.17c2.3-3.27,5.4-5.23,9.88-5.23c6.43,0,10.4,3.62,10.4,10.05v21.54h-5.28v-20.91
				c0-3.96-2.58-6.2-6.78-6.2c-4.77,0-8.21,3.39-8.21,8.33v18.78h-5.34v-42.74h5.34v11.2C501.77,302.1,501.65,304.22,501.59,305.72z
				"/>
			<path class="st0" d="M529.34,289.35h5.57v6.2h-5.57V289.35z M529.46,301.24h5.34v30.85h-5.34V301.24z"/>
			<path class="st0" d="M540.32,301.24h4.83v-9.71h5.28v9.71h6.38v4.14h-6.38v19.47c0,2.24,1.21,2.87,3.16,2.87
				c0.92,0,2.13-0.23,2.7-0.4h0.17v4.48c-1.44,0.35-2.93,0.52-4.31,0.52c-4.14-0.06-7.01-1.72-7.01-6.26v-20.68h-4.83V301.24z"/>
			<path class="st0" d="M559.68,316.69c0-8.96,5.92-16.2,14.76-16.2c4.6,0,8.16,1.78,10.57,4.77c2.53,3.04,3.79,7.47,3.79,12.69
				h-23.67c0.4,6.03,3.68,10.63,9.65,10.63c4.25,0,7.18-2.01,8.16-5.29h5.23c-1.38,5.75-6.32,9.65-13.44,9.65
				C565.25,332.95,559.68,325.71,559.68,316.69z M565.25,314.1h17.86c-0.29-5.92-3.33-9.48-8.67-9.48
				C568.87,304.63,565.94,308.65,565.25,314.1z"/>
			<path class="st0" d="M592.83,316.69c0-8.96,5.8-16.2,15.05-16.2c7.41,0,12.24,4.19,13.33,10.8h-5.34
				c-0.75-4.02-3.5-6.49-7.99-6.49c-6.32,0-9.59,5.23-9.59,11.89c0,6.66,3.27,11.89,9.59,11.89c4.83,0,7.7-2.81,8.1-7.41h5.29
				c-0.69,7.35-5.57,11.78-13.39,11.78C598.63,332.95,592.83,325.71,592.83,316.69z"/>
			<path class="st0" d="M624.26,301.24h4.83v-9.71h5.29v9.71h6.38v4.14h-6.38v19.47c0,2.24,1.21,2.87,3.16,2.87
				c0.92,0,2.13-0.23,2.7-0.4h0.17v4.48c-1.44,0.35-2.93,0.52-4.31,0.52c-4.14-0.06-7.01-1.72-7.01-6.26v-20.68h-4.83V301.24z"/>
			<path class="st0" d="M644.02,322.72h5.4c0.63,4.48,4.08,5.98,8.5,5.98c4.88,0,6.95-2.13,6.95-4.88c0-3.39-2.58-4.25-8.04-5.34
				c-6.03-1.26-11.49-2.53-11.49-9.31c0-5.28,4.14-8.62,11.32-8.62c7.76,0,11.6,3.62,12.29,8.96h-5.34
				c-0.46-3.16-2.64-4.94-7.07-4.94c-4.19,0-5.97,1.95-5.97,4.31c0,3.22,2.99,3.85,8.22,4.88c6.15,1.21,11.43,2.58,11.43,9.76
				c0,6.26-5.17,9.48-12.41,9.48C649.31,333,644.48,328.98,644.02,322.72z"/>
		</g>
		<polygon class="st1" points="382.17,302.45 377.47,302.45 377.47,315 365.35,315 365.35,319.45 377.47,319.45 377.47,332.07 
			382.17,332.07 382.17,319.45 394.29,319.45 394.29,315 382.17,315 		"/>
	</g>
	<path class="st2" d="M161.14,338.99"/>
	<g>
		<path class="st3" d="M185.31,202.06"/>
	</g>
	<path class="st0" d="M133.83,177.21v190.27H324.1V177.21H133.83z M168.79,331.8h-17.22l23.23-118.64l35.33,80l-8.67,18.99
		l-20.8-47.04L168.79,331.8z M235.66,331.8V318h17.83l-8.44-52.81l-30.37,66.61h-28.71v-13.8l17.99,0l47.94-104.84l20.87,118.64
		L235.66,331.8z M305.98,265.47c-4.52,6.45-11.14,11.23-18.71,13.5c-4.36,1.3-18.44,3.66-18.44,3.66l-2.74-15.5
		c4.25-0.75,8.54-1.39,12.76-2.29c4.01-0.85,8.05-2.16,11.16-4.93c3.19-2.84,5.43-6.7,6.31-10.88c0.51-2.46,0.55-5.01,0.12-7.49
		c-0.45-2.47-1.36-4.86-2.68-7c-2.26-3.63-5.69-6.48-9.66-8.06c-3.88-1.54-8.12-1.38-12.17-0.8c-4.27,0.61-8.52,1.47-12.77,2.23
		c0,0-2.74-15.49-2.74-15.49c0-0.01,4.81-0.86,5.12-0.92c4.46-0.8,8.92-1.72,13.46-1.99c7.89-0.47,15.75,1.75,22.21,6.26
		c7.83,5.46,13.06,13.63,14.74,23.02c0,0,0,0,0,0l0,0.01c0,0,0,0,0,0C313.56,248.18,311.45,257.66,305.98,265.47z"/>
</g>
<g id="Layer_2">
</g>
<g id="Layer_3">
</g>
<g id="Layer_4">
</g>
<g id="Layer_5">
</g>
</svg>
