<?xml version="1.0" encoding="UTF-8"?><svg id="Layer_1" xmlns="http://www.w3.org/2000/svg" viewBox="0 0 265.08 329.55"><defs><style>.cls-1{font-family:NHaasGroteskTXStd-55Rg, 'Neue Haas Grotesk Text Std';font-size:48px;}.cls-1,.cls-2{fill:#054d81;}.cls-3{letter-spacing:0em;}.cls-4{letter-spacing:0em;}.cls-5{letter-spacing:0em;}.cls-6{letter-spacing:0em;}.cls-2{stroke-width:0px;}.cls-7{letter-spacing:0em;}.cls-8{fill:#ff6700;stroke:#ff6700;stroke-miterlimit:10;stroke-width:2px;}.cls-9{letter-spacing:-.01em;}.cls-10{letter-spacing:.01em;}.cls-11{letter-spacing:0em;}</style></defs><text class="cls-1" transform="translate(3.21 312.4)"><tspan class="cls-9" x="0" y="0">E</tspan><tspan class="cls-3" x="31.25" y="0">n</tspan><tspan class="cls-5" x="58.42" y="0">g</tspan><tspan class="cls-11" x="86.81" y="0">i</tspan><tspan class="cls-4" x="97.47" y="0">n</tspan><tspan class="cls-6" x="124.97" y="0">e</tspan><tspan x="152.81" y="0">e</tspan><tspan class="cls-7" x="180.51" y="0">r</tspan><tspan class="cls-10" x="198.41" y="0">s</tspan></text><polygon class="cls-8" points="249.26 290.2 246.24 290.2 246.24 298.28 238.43 298.28 238.43 301.15 246.24 301.15 246.24 309.27 249.26 309.27 249.26 301.15 257.07 301.15 257.07 298.28 249.26 298.28 249.26 290.2"/><path class="cls-2" d="M6.91,7.56v251.06h251.06V7.56H6.91ZM53.04,211.54h-22.73L60.96,55l46.62,105.56-11.44,25.06-27.45-62.06-15.65,87.98ZM141.27,211.54v-18.21h23.53l-11.14-69.68-40.07,87.89h-37.88v-18.2h23.74s63.26-138.34,63.26-138.34l27.54,156.54h-48.98ZM234.06,124.02c-5.97,8.51-14.7,14.82-24.69,17.81-5.75,1.72-24.33,4.83-24.33,4.83l-3.62-20.46c5.61-.98,11.26-1.84,16.84-3.02,5.29-1.12,10.62-2.85,14.73-6.5,4.21-3.75,7.17-8.84,8.32-14.36.68-3.25.73-6.62.16-9.88-.59-3.27-1.79-6.41-3.54-9.23-2.98-4.79-7.5-8.56-12.75-10.63-5.12-2.03-10.71-1.82-16.06-1.06-5.64.8-11.24,1.94-16.85,2.94,0,0-3.62-20.44-3.62-20.44,0,0,6.35-1.14,6.75-1.21,5.89-1.06,11.77-2.26,17.76-2.62,10.42-.63,20.78,2.31,29.3,8.25,10.33,7.2,17.23,17.99,19.45,30.38,0,0,0,0,0,0h0s0,0,0,0c2.17,12.4-.61,24.9-7.84,35.21Z"/></svg>