<?xml version="1.0" encoding="UTF-8"?><svg xmlns="http://www.w3.org/2000/svg" viewBox="0 0 421 207"><defs><style>.f{letter-spacing:.001em;}.g{letter-spacing:.01em;}.h{letter-spacing:-.015em;}.i{letter-spacing:-.005em;}.j{font-family:NHaasGroteskTXStd-55Rg, Neue Haas Grotesk Text Std;font-size:37.2077px;}.j,.k{fill:#054d81;}.l{letter-spacing:-.006em;}.m{letter-spacing:-.0004em;}.n{fill:#ff6700;stroke:#ff6700;stroke-miterlimit:10;stroke-width:2px;}.o{letter-spacing:.002em;}.p{letter-spacing:.003em;}</style></defs><g id="a"><text class="j" transform="translate(211.2848 121.6656)"><tspan class="h" x="0" y="0">E</tspan><tspan class="i" x="24.2219" y="0">n</tspan><tspan class="m" x="45.2807" y="0">g</tspan><tspan class="f" x="67.404" y="0">i</tspan><tspan class="o" x="75.6638" y="0">n</tspan><tspan class="p" x="96.9844" y="0">e</tspan><tspan x="118.5647" y="0">e</tspan><tspan class="l" x="140.0336" y="0">r</tspan><tspan class="g" x="153.9117" y="0">s</tspan></text><polygon class="n" points="402.018 104.4571 399.6757 104.4571 399.6757 110.7233 393.6221 110.7233 393.6221 112.9443 399.6757 112.9443 399.6757 119.241 402.018 119.241 402.018 112.9443 408.0716 112.9443 408.0716 110.7233 402.018 110.7233 402.018 104.4571"/><path class="k" d="M6.7745,5.7553V200.367H201.3862V5.7553H6.7745ZM42.5312,163.8716H24.9146L48.6714,42.5284l36.1395,81.8247-8.8702,19.4262-21.2751-48.1084-12.1344,68.2008Zm68.3905,.0002v-14.1135h18.2412l-8.6355-54.0144-31.058,68.1325h-29.3639v-14.1114l18.405,.0002L127.5448,42.5284l21.3449,121.3432-37.968,.0002Zm71.9247-67.8466c-4.627,6.5957-11.3913,11.4895-19.1411,13.8049-4.4549,1.331-18.8605,3.7404-18.8605,3.7404l-2.8026-15.8566c4.3485-.7627,8.7311-1.425,13.0504-2.3402,4.0999-.8687,8.2286-2.2055,11.4143-5.0423,3.2655-2.9078,5.557-6.852,6.4512-11.1331,.5259-2.5176,.564-5.1281,.1233-7.6615-.4554-2.5311-1.387-4.9703-2.745-7.1548-2.309-3.7143-5.8148-6.6327-9.8799-8.2434-3.9657-1.5713-8.3025-1.4102-12.4515-.8193-4.3711,.6225-8.7149,1.5044-13.061,2.2802l-2.8064-15.8418c-.0009-.0051,4.9202-.8826,5.2324-.9386,4.5659-.8181,9.1229-1.7554,13.764-2.0339,8.0738-.4846,16.1066,1.7909,22.716,6.3983,8.0052,5.5805,13.3583,13.9439,15.074,23.5498l-.0007-.0047,.0016,.0089-.0009-.0042c1.6847,9.6112-.4735,19.3036-6.0776,27.292Z"/></g><g id="b"/><g id="c"/><g id="d"/><g id="e"/></svg>