<?xml version="1.0" encoding="UTF-8"?><svg id="a" xmlns="http://www.w3.org/2000/svg" viewBox="0 0 265.0833 329.5515"><defs><style>.b{letter-spacing:-.005em;}.c{letter-spacing:.002em;}.d{letter-spacing:-.0034em;}.e{letter-spacing:.003em;}.f{letter-spacing:-.006em;}.g{fill:#ff6700;stroke:#ff6700;stroke-miterlimit:10;stroke-width:2px;}.h{font-family:NHaasGroteskTXStd-55Rg, Neue Haas Grotesk Text Std;font-size:48px;}.h,.i{fill:#1c1c1a;}.j{letter-spacing:-.015em;}.k{letter-spacing:.01em;}.l{letter-spacing:.001em;}</style></defs><text class="h" transform="translate(3.1583 313.988)"><tspan class="j" x="0" y="0">E</tspan><tspan class="b" x="31.2474" y="0">n</tspan><tspan class="d" x="58.4151" y="0">g</tspan><tspan class="l" x="86.8114" y="0">i</tspan><tspan class="c" x="97.4668" y="0">n</tspan><tspan class="e" x="124.971" y="0">e</tspan><tspan x="152.8111" y="0">e</tspan><tspan class="f" x="180.5067" y="0">r</tspan><tspan class="k" x="198.4102" y="0">s</tspan></text><polygon class="g" points="249.2135 291.7868 246.1918 291.7868 246.1918 299.8705 238.3824 299.8705 238.3824 302.7356 246.1918 302.7356 246.1918 310.8588 249.2135 310.8588 249.2135 302.7356 257.023 302.7356 257.023 299.8705 249.2135 299.8705 249.2135 291.7868"/><path class="i" d="M6.8652,9.1526v251.0596h251.0597V9.1526H6.8652ZM52.9933,213.1312H30.2668L60.9145,56.5919l46.6219,105.5583-11.4431,25.0608-27.446-62.0624-15.654,87.9827Zm88.2274,.0003v-18.2072h23.5322l-11.1403-69.6815-40.0665,87.8946h-37.881v-18.2045l23.7435,.0002L162.6654,56.5919l27.5361,156.5393-48.9808,.0003Zm92.7867-87.5258c-5.9691,8.5089-14.6954,14.822-24.6931,17.809-5.7471,1.717-24.3311,4.8253-24.3311,4.8253l-3.6155-20.4558c5.6098-.9839,11.2635-1.8383,16.8358-3.019,5.2891-1.1207,10.6154-2.8453,14.7251-6.5048,4.2127-3.7512,7.1689-8.8395,8.3224-14.3624,.6784-3.2479,.7275-6.6155,.1591-9.8838-.5875-3.2653-1.7894-6.4119-3.5413-9.23-2.9787-4.7917-7.5015-8.5566-12.7456-10.6344-5.116-2.0271-10.7106-1.8192-16.0631-1.0569-5.639,.8031-11.2427,1.9407-16.8494,2.9415l-3.6204-20.4368c-.0012-.0066,6.3473-1.1386,6.7501-1.2108,5.8902-1.0554,11.769-2.2645,17.7563-2.6238,10.4156-.6251,20.7784,2.3103,29.3049,8.2542,10.3271,7.1992,17.2329,17.9883,19.4462,30.3805l-.0009-.006,.002,.0115-.0011-.0054c2.1734,12.3989-.6108,24.9026-7.8404,35.2082Z"/></svg>